<svg width="68" height="68" viewBox="0 0 68 68" fill="none" xmlns="http://www.w3.org/2000/svg"><g clip-path="url(#clip0)"><path d="M67.17 63.164L47.831 43.826c3.745-4.626 6-10.505 6-16.909 0-14.84-12.075-26.916-26.916-26.916C12.076 0 0 12.076 0 26.917c0 14.841 12.076 26.917 26.916 26.917 6.404 0 12.283-2.256 16.91-6.001L63.163 67.17a2.829 2.829 0 004.006 0 2.83 2.83 0 000-4.006zM26.915 48.167c-11.718 0-21.25-9.531-21.25-21.25 0-11.718 9.532-21.25 21.25-21.25 11.719 0 21.25 9.532 21.25 21.25 0 11.719-9.531 21.25-21.25 21.25z" fill="#fff"/></g><defs><clipPath id="clip0"><path fill="#fff" d="M0 0h68v68H0z"/></clipPath></defs></svg>